<svg width="20" height="20" viewBox="0 0 20 20" fill="none" xmlns="http://www.w3.org/2000/svg">
<path fill-rule="evenodd" clip-rule="evenodd" d="M16.6665 4.99992H9.99984L8.33317 3.33325H3.33317C2.4165 3.33325 1.67484 4.08325 1.67484 4.99992L1.6665 14.9999C1.6665 15.9166 2.4165 16.6666 3.33317 16.6666H16.6665C17.5832 16.6666 18.3332 15.9166 18.3332 14.9999V6.66658C18.3332 5.74992 17.5832 4.99992 16.6665 4.99992ZM12.4998 7.49992C13.4165 7.49992 14.1665 8.24992 14.1665 9.16659C14.1665 10.0833 13.4165 10.8333 12.4998 10.8333C11.5832 10.8333 10.8332 10.0833 10.8332 9.16659C10.8332 8.24992 11.5832 7.49992 12.4998 7.49992ZM15.8332 14.1666H9.1665V13.3333C9.1665 12.2249 11.3915 11.6666 12.4998 11.6666C13.6082 11.6666 15.8332 12.2249 15.8332 13.3333V14.1666Z" fill="white"/>
</svg>
