<svg width="41" height="49" viewBox="0 0 41 49" fill="none" xmlns="http://www.w3.org/2000/svg">
<path d="M20.4985 0C18.1603 0 15.9748 0.359848 13.9638 1.01451C0.270472 5.47576 -5.21296 23.6025 6.07672 34.7535L20.4985 49L23.2817 46.2513L34.9204 34.7578C47.8721 21.9637 38.7592 0 20.4985 0Z" fill="#87754E"/>
<path d="M19.6957 14.0557H21.8682C21.9292 14.0557 21.9947 14.008 22.0121 13.9517L22.4309 12.677C22.4483 12.6207 22.5181 12.573 22.5792 12.573H24.3852C24.4463 12.573 24.5423 12.5903 24.599 12.6163L25.1137 12.8331C25.1704 12.8548 25.2533 12.8418 25.3013 12.8027L26.6231 11.5975C26.6667 11.5585 26.658 11.5021 26.6013 11.4804L25.0483 10.8344C24.9916 10.8127 24.9392 10.7434 24.9261 10.6827L24.6644 9.02651C24.6557 8.96581 24.6949 8.93546 24.7516 8.96148L26.3875 9.64215C26.4442 9.66817 26.4835 9.63782 26.4748 9.57712L26.2261 8.01634C26.2174 7.95564 26.2436 7.86893 26.2872 7.82557L26.6623 7.43538C26.706 7.39202 26.6972 7.33132 26.6449 7.30098L26.261 7.07553C26.2087 7.04518 26.1171 7.03651 26.0603 7.06252L23.9315 7.89928C23.8748 7.92095 23.7832 7.92095 23.7221 7.89494L23.0547 7.61747C22.998 7.59579 22.9369 7.6218 22.9151 7.6825L22.8497 7.88193C22.8322 7.9383 22.854 8.01634 22.9064 8.05102L23.2859 8.32416C23.3383 8.35884 23.3426 8.42387 23.299 8.46723L22.9718 8.79239C22.9282 8.83575 22.8453 8.85309 22.7886 8.82708L21.9554 8.48024C21.8987 8.45856 21.8682 8.38919 21.8856 8.33283L22.1997 7.38335C22.2171 7.32265 22.1866 7.25762 22.1299 7.23594L21.7896 7.09287C21.7329 7.07119 21.6718 7.09721 21.65 7.1579L21.2443 8.39353C21.2269 8.44989 21.2225 8.5496 21.24 8.60597L21.5017 9.59446C21.5192 9.65516 21.5148 9.75054 21.4974 9.8069L20.59 12.5686C20.5725 12.625 20.5027 12.6727 20.4417 12.6727H19.9531C19.892 12.6727 19.831 12.7204 19.8222 12.7811L19.6085 13.9603C19.5954 14.008 19.6346 14.0557 19.6957 14.0557Z" fill="white"/>
<path d="M27.2077 8.60167L27.6134 8.37622C27.6657 8.34587 27.6788 8.28517 27.6395 8.23748L27.2382 7.75191C27.199 7.70421 27.1335 7.70421 27.0899 7.74757L27.0637 7.77792C27.0201 7.82127 26.9939 7.90798 27.0026 7.96868L27.0943 8.54964C27.0986 8.606 27.151 8.63201 27.2077 8.60167Z" fill="white"/>
<path d="M27.1988 9.2259L27.3079 9.90657C27.3166 9.96727 27.369 10.0366 27.4257 10.0583L28.6253 10.5569C28.682 10.5829 28.7474 10.6479 28.7693 10.7043L28.8827 10.9948C28.9045 11.0511 28.9743 11.0945 29.0354 11.0902L29.1924 11.0815C29.2535 11.0772 29.3189 11.0295 29.3407 10.9688L29.6941 9.8849C29.7159 9.8242 29.6897 9.75049 29.6417 9.71148L29.1139 9.2996C29.0659 9.26058 29.0223 9.18254 29.0135 9.12184L28.9263 8.26341C28.9176 8.20272 28.8696 8.1767 28.8172 8.20705L27.2773 9.05681C27.225 9.09583 27.1857 9.16954 27.1988 9.2259Z" fill="white"/>
<path d="M31.077 9.40804L29.7377 8.63198C29.6854 8.60163 29.6461 8.62764 29.6549 8.68834L29.6723 8.83575C29.681 8.89645 29.7247 8.97882 29.7726 9.0135L30.5012 9.56845C30.5491 9.60747 30.5753 9.68551 30.5579 9.74187L29.9253 11.6668C29.9079 11.7232 29.8424 11.7752 29.7814 11.7796L27.8358 11.8966C27.7747 11.901 27.6962 11.9443 27.6656 11.9963L26.7932 13.401C26.7626 13.4531 26.7801 13.5181 26.8412 13.5398L27.2512 13.7089C27.3079 13.7305 27.3385 13.7999 27.321 13.8563L26.8717 15.1743C26.8543 15.2306 26.7888 15.261 26.7321 15.235L25.7331 14.8188C25.6764 14.7971 25.5805 14.7754 25.5194 14.7754H25.0177C24.9566 14.7754 24.913 14.8274 24.9217 14.8838L25.2707 17.0862C25.2795 17.1469 25.3318 17.2206 25.3842 17.2553L27.0636 18.2958C27.116 18.3305 27.1073 18.3565 27.0462 18.3609L25.5586 18.4476C25.4976 18.4519 25.4278 18.4996 25.4016 18.556L24.0144 21.7339C23.9882 21.7903 23.9577 21.8857 23.9446 21.9463L22.4963 28.0768C22.4832 28.1375 22.5007 28.2285 22.5312 28.2762L22.9064 28.8311C22.9413 28.8832 22.9194 28.9222 22.8584 28.9222H22.3218C22.2607 28.9222 22.1822 28.8788 22.1473 28.8311L21.8594 28.4063C21.8245 28.3542 21.8071 28.2632 21.8201 28.2068L23.2117 21.9724C23.2248 21.9117 23.2117 21.8206 23.1855 21.7643L22.4963 20.4289C22.4658 20.3726 22.4789 20.2945 22.5181 20.2468L24.5422 17.9187C24.5815 17.8753 24.6077 17.7843 24.5989 17.7236L24.154 14.9141C24.1453 14.8534 24.0842 14.8058 24.0231 14.8014L19.6782 14.7754C19.6172 14.7754 19.5692 14.8231 19.5692 14.8838V14.9445C19.5692 15.0052 19.5343 15.0876 19.4863 15.1309L12.3059 21.7513C12.2623 21.7946 12.1751 21.825 12.114 21.825H11.1761C11.115 21.825 11.0278 21.8596 10.9841 21.903L10.5697 22.2845C10.5261 22.3235 10.513 22.4059 10.5436 22.4579L11.4596 24.0317C11.4902 24.0838 11.4989 24.1748 11.4771 24.2312L9.87175 28.8225C9.84994 28.8788 9.85867 28.9699 9.89357 29.0219L10.1684 29.4901C10.1989 29.5422 10.2774 29.5855 10.3342 29.5855H13.3529C13.414 29.5855 13.475 29.5378 13.4838 29.4771L13.5361 29.217C13.5492 29.1563 13.523 29.0696 13.4794 29.0306L12.463 27.9857C12.4193 27.9424 12.4324 27.8903 12.4935 27.873L16.8296 26.5723C16.8907 26.555 16.9038 26.503 16.8602 26.464L15.7696 25.3757C15.726 25.3324 15.6475 25.3237 15.5951 25.3541L12.1053 27.4785C12.0529 27.5088 11.9875 27.5825 11.9569 27.6345L11.2982 28.8398C11.2677 28.8918 11.1935 28.9395 11.1325 28.9395H10.6701C10.609 28.9395 10.5785 28.8962 10.6046 28.8355L12.1445 25.4061C12.1707 25.3497 12.2405 25.2977 12.3016 25.2847L15.0716 24.8121C15.1327 24.8035 15.1938 24.7428 15.2069 24.6864L15.8525 21.7339C15.8656 21.6732 15.8394 21.5908 15.7914 21.5518L15.1545 20.9839C15.1109 20.9448 15.0804 20.8625 15.0934 20.8018L15.2069 20.2295C15.22 20.1688 15.2679 20.1514 15.3116 20.1948L16.5592 21.2917C16.6072 21.3307 16.6508 21.4131 16.6639 21.4738L17.4055 25.87C17.4142 25.9307 17.4491 25.935 17.4753 25.8787L18.4961 23.906C18.5266 23.8496 18.5964 23.815 18.6575 23.8236L20.0098 24.0534C20.0709 24.0621 20.1406 24.0274 20.1625 23.971L20.5638 23.0259C20.59 22.9695 20.5987 22.8741 20.59 22.8135L19.6521 17.1339C19.6433 17.0732 19.6652 17.0646 19.7088 17.1079L21.999 19.8089C22.0383 19.8566 22.0513 19.939 22.0295 19.9954L21.3141 21.825C21.2923 21.8813 21.2923 21.9767 21.3185 22.0331L22.0034 23.6545C22.0252 23.7109 22.0339 23.8063 22.0252 23.867L20.9651 28.8181C20.952 28.8788 20.9695 28.9699 21 29.0219L21.2749 29.4901C21.3054 29.5422 21.3795 29.5855 21.4406 29.5855H24.4463C24.5073 29.5855 24.5728 29.5378 24.5946 29.4815L24.6862 29.2083C24.7036 29.152 24.6862 29.0696 24.6426 29.0219L23.2684 27.6042C23.2248 27.5608 23.2117 27.4785 23.2379 27.4221L24.8345 24.0751C24.8607 24.0187 24.8869 23.9233 24.8956 23.8626L25.1791 21.5692C25.1879 21.5085 25.2227 21.4218 25.2664 21.3741L27.574 18.6427C27.6133 18.595 27.6438 18.5083 27.6438 18.4476L27.5697 15.9807C27.5653 15.92 27.5348 15.8289 27.4999 15.7769L27.3341 15.5471C27.2992 15.4994 27.2861 15.4084 27.3036 15.352L27.7093 14.1207C27.7267 14.0644 27.718 13.9733 27.6918 13.9213L27.4388 13.4791C27.4083 13.4271 27.4301 13.362 27.4868 13.3403L30.2176 12.1394C30.2743 12.1134 30.3354 12.0484 30.3528 11.9877L31.1511 9.56845C31.1599 9.51209 31.1293 9.43838 31.077 9.40804Z" fill="white"/>
<path d="M24.542 13.193H23.0327C22.9716 13.193 22.9062 13.2407 22.8843 13.297L22.6706 13.9474C22.6488 14.0037 22.6837 14.0514 22.7448 14.0514H24.6773C24.7383 14.0514 24.782 14.0037 24.7732 13.943L24.6729 13.3014C24.6598 13.2407 24.6031 13.193 24.542 13.193Z" fill="white"/>
</svg>
